# xmcd
# Copyright (C) 1995-1998 Ti Kan
#
# Track frame offsets:
#       150
#       14669
#       24069
#       38611
#       55627
#       69134
#       86779
#       100230
#       111189
#       132103
#       151567
#       164084
#       179389
#       188037
#
# Disc length: 2631 seconds
#
# Revision: 2
# Processed by: cddbd v1.5.1PL0 Copyright (c) Steve Scherf et al.
# Submitted via: CD-Transfer v1.0
#
DISCID=a40a450e
DTITLE=Carnation - Waxy´s Little Sister
DYEAR=2005
DGENRE=
TTITLE0=Bad Hair Day
TTITLE1=Good At It
TTITLE2=Gas In The Can
TTITLE3=Velvet Sky
TTITLE4=The Band Is Always Right
TTITLE5=Sunflower Yellow
TTITLE6=Like Rauschgift Never Happened
TTITLE7=Ghostbuster
TTITLE8=Serotonin
TTITLE9=Ocean Of Sound
TTITLE10=Mama Alright
TTITLE11=Rhythm Psychedelia
TTITLE12=Good Night (Bad Dream)
TTITLE13=One For The Lads
EXTD=
EXTT0=
EXTT1=
EXTT2=
EXTT3=
EXTT4=
EXTT5=
EXTT6=
EXTT7=
EXTT8=
EXTT9=
EXTT10=
EXTT11=
EXTT12=
EXTT13=
PLAYORDER=
